<?xml version="1.0" encoding="utf-8"?>
<!-- Generator: Adobe Illustrator 27.5.0, SVG Export Plug-In . SVG Version: 6.00 Build 0)  -->
<svg version="1.1" xmlns="http://www.w3.org/2000/svg" xmlns:xlink="http://www.w3.org/1999/xlink" x="0px" y="0px"
	 viewBox="0 0 500 500" style="enable-background:new 0 0 500 500;" xml:space="preserve">
<g id="BACKGROUND">
	<rect style="fill:#F5E5C9;" width="500" height="500"/>
</g>
<g id="OBJECTS">
	<g>
		<path style="fill:#EBD4AE;" d="M307.298,81.141c-6.832,33.264,40.361,107.539,103.782,75.199S317.651,30.731,307.298,81.141z"/>
		<path style="fill:#EBD4AE;" d="M179.078,417.75c-18.92,26.794,141.521,46.742,119,14.159
			C277,401.414,202.5,384.581,179.078,417.75z"/>
		<path style="fill:#EBD4AE;" d="M52.499,216.73c0,93.034,22.951,138.751,85.839,161.3c43.697,15.668,84.412-4.919,144.14,20.095
			c45.701,19.14,115.264-12.243,137.309-74.126c15.444-43.354,17.26-126.443-56-145.134C275.5,156.34,296,51.392,153.319,84.369
			C91.287,98.705,52.499,154.588,52.499,216.73z"/>
	</g>
	<g>
		<g>
			<path style="fill:#CC4E49;" d="M248.41,371.045v-11.63c-30.12,0-76-4.46-76-60.47c0,0,6.38,50.47,76,50.47v-11.62l16.62,16.62
				L248.41,371.045z"/>
			<path style="fill:#1F160F;" d="M265.03,354.674c-0.066,0-0.133-0.025-0.183-0.076l-16.178-16.178v10.995
				c0,0.143-0.116,0.259-0.259,0.259c-36.066,0-54.878-13.774-64.309-25.33c-10.226-12.53-11.933-25.239-11.949-25.366
				c-0.018-0.142,0.083-0.271,0.224-0.289c0.144-0.013,0.272,0.083,0.29,0.225c0.016,0.125,1.71,12.709,11.854,25.125
				c9.339,11.432,27.952,25.053,63.631,25.118v-11.361c0-0.105,0.063-0.199,0.16-0.239c0.095-0.039,0.208-0.018,0.281,0.057
				l16.619,16.62c0.102,0.101,0.102,0.265,0,0.365C265.163,354.648,265.096,354.674,265.03,354.674z"/>
		</g>
		<g>
			<path style="fill:#CC4E49;" d="M250.131,124.472v11.63c30.12,0,76,4.46,76,60.47c0,0-6.38-50.47-76-50.47v11.62l-16.62-16.62
				L250.131,124.472z"/>
			<path style="fill:#1F160F;" d="M326.131,196.83c-0.129,0-0.24-0.096-0.257-0.226c-0.016-0.126-1.711-12.709-11.853-25.125
				c-9.339-11.432-27.952-25.053-63.631-25.118v11.361c0,0.105-0.063,0.199-0.16,0.239c-0.094,0.04-0.209,0.018-0.281-0.056
				l-16.62-16.62c-0.102-0.101-0.102-0.265,0-0.366c0.1-0.1,0.266-0.1,0.365,0l16.179,16.179v-10.996
				c0-0.143,0.116-0.259,0.259-0.259c36.065,0,54.877,13.774,64.308,25.33c10.227,12.53,11.933,25.239,11.949,25.366
				c0.018,0.142-0.083,0.271-0.225,0.289C326.153,196.829,326.142,196.83,326.131,196.83z"/>
		</g>
	</g>
	<g>
		<rect x="310.298" y="401.414" style="fill:#FABC5F;" width="50" height="36"/>
		<path style="fill:#FFFFFF;" d="M312.898,409.414L312.898,409.414c-3.093,0-5.6-2.507-5.6-5.6v-2.4h11.2v2.4
			C318.498,406.907,315.99,409.414,312.898,409.414z"/>
		<path style="fill:#CC4E49;" d="M324.098,409.414L324.098,409.414c-3.093,0-5.6-2.507-5.6-5.6v-2.4h11.2v2.4
			C329.698,406.907,327.19,409.414,324.098,409.414z"/>
		<path style="fill:#FFFFFF;" d="M335.298,409.414L335.298,409.414c-3.093,0-5.6-2.507-5.6-5.6v-2.4h11.2v2.4
			C340.898,406.907,338.39,409.414,335.298,409.414z"/>
		<path style="fill:#CC4E49;" d="M346.498,409.414L346.498,409.414c-3.093,0-5.6-2.507-5.6-5.6v-2.4h11.2v2.4
			C352.098,406.907,349.59,409.414,346.498,409.414z"/>
		<path style="fill:#FFFFFF;" d="M357.698,409.414L357.698,409.414c-3.093,0-5.6-2.507-5.6-5.6v-2.4h11.2v2.4
			C363.298,406.907,360.79,409.414,357.698,409.414z"/>
		<polygon style="fill:#FFFFFF;" points="357.298,389.414 313.298,389.414 307.298,401.414 363.298,401.414 		"/>
		<polygon style="fill:#CC4E49;" points="331.698,389.414 322.498,389.414 318.498,401.414 329.698,401.414 		"/>
		<polygon style="fill:#CC4E49;" points="338.898,389.414 348.098,389.414 352.098,401.414 340.898,401.414 		"/>
		<path style="fill:#FABC5F;" d="M356.298,385.414h-42c-0.552,0-1,0.448-1,1v3h44v-3
			C357.298,385.862,356.85,385.414,356.298,385.414z"/>
		<rect x="318.185" y="419.414" style="fill:#FFFFFF;" width="9" height="18"/>
		<rect x="332.997" y="419.414" style="fill:#FFFFFF;" width="23" height="9"/>
		<path style="fill:#1F160F;" d="M363.297,401.673h-56c-0.143,0-0.259-0.116-0.259-0.259c0-0.143,0.116-0.259,0.259-0.259h56
			c0.143,0,0.259,0.116,0.259,0.259C363.556,401.556,363.44,401.673,363.297,401.673z"/>
	</g>
	<g>
		<g>
			<rect x="148.332" y="366.09" style="fill:#FABC5F;" width="31.324" height="31.324"/>
			<rect x="132.67" y="366.09" style="fill:#E59E47;" width="15.662" height="31.324"/>
			<rect x="148.073" y="366.09" style="fill:#1F160F;" width="0.517" height="31.324"/>
			<polygon style="fill:#F5E5C9;" points="166.842,366.091 166.842,377.481 165.418,376.057 163.994,377.481 162.57,376.057 
				161.146,377.481 161.146,366.091 			"/>
		</g>
		<g>
			<rect x="128.856" y="330.495" style="fill:#FABC5F;" width="31.324" height="31.324"/>
			<rect x="113.194" y="330.495" style="fill:#E59E47;" width="15.662" height="31.324"/>
			<rect x="128.597" y="330.495" style="fill:#1F160F;" width="0.518" height="31.324"/>
			<polygon style="fill:#F5E5C9;" points="147.366,330.495 147.366,341.885 145.942,340.462 144.518,341.885 143.094,340.462 
				141.671,341.885 141.671,330.495 			"/>
		</g>
		<g>
			<rect x="109.57" y="366.09" style="fill:#FABC5F;" width="31.324" height="31.324"/>
			<rect x="93.908" y="366.09" style="fill:#E59E47;" width="15.662" height="31.324"/>
			<rect x="109.311" y="366.09" style="fill:#1F160F;" width="0.517" height="31.324"/>
			<polygon style="fill:#F5E5C9;" points="128.079,366.091 128.079,377.481 126.656,376.057 125.232,377.481 123.808,376.057 
				122.384,377.481 122.384,366.091 			"/>
		</g>
	</g>
	<g>
		<path style="fill:#1F160F;" d="M369.291,150.475c-14.552-8.2-29.846-15.009-45.677-20.337c2.339-6.95,4.678-13.901,7.017-20.851
			c17.142,5.769,33.702,13.142,49.46,22.021C376.491,137.697,372.891,144.086,369.291,150.475z"/>
		<g>
			<path style="fill:#0C723C;" d="M369.282,150.473c-15.552-6.095-31.644-10.709-48.063-13.782
				c1.349-7.208,2.698-14.416,4.047-21.625c17.778,3.327,35.203,8.324,52.043,14.923
				C374.633,136.818,371.957,143.645,369.282,150.473z"/>
			<path style="fill:#1C8C4F;" d="M374.131,135.188c-1.204,3.108-2.409,6.216-3.614,9.324c-1.319-0.512-2.717-0.44-3.894,0.093
				c-1.184,0.52-2.144,1.501-2.618,2.796c-11.961-4.378-24.22-7.893-36.683-10.519c0.284-1.35-0.01-2.691-0.739-3.759
				c-0.715-1.076-1.863-1.877-3.253-2.143c0.626-3.274,1.251-6.548,1.876-9.822c1.441,0.275,2.849-0.013,3.974-0.712
				c1.132-0.687,1.979-1.784,2.264-3.135c13.398,2.823,26.577,6.601,39.435,11.308c-0.474,1.296-0.337,2.676,0.259,3.859
				C371.721,133.667,372.764,134.658,374.131,135.188z"/>
			<path style="fill:#0C723C;" d="M355.595,133.979c1.181-3.679-1.067-7.689-5.059-8.833c-3.991-1.145-8.022,1.063-8.971,4.81
				c-0.949,3.749,1.355,7.568,5.112,8.648C350.436,139.68,354.414,137.662,355.595,133.979z"/>
			<path style="fill:#0C723C;" d="M365.647,137.364c0.562-1.558-0.317-3.302-1.972-3.874c-1.654-0.572-3.422,0.258-3.942,1.831
				c-0.521,1.574,0.371,3.283,1.983,3.84C363.327,139.717,365.084,138.922,365.647,137.364z"/>
			<path style="fill:#0C723C;" d="M331.248,127.5c0.349-1.619,2.02-2.632,3.726-2.24c1.705,0.391,2.766,2.032,2.373,3.642
				c-0.392,1.611-2.054,2.587-3.717,2.206C331.967,130.725,330.899,129.12,331.248,127.5z"/>
			<path style="fill:#F5E5C9;" d="M351.21,133.333c-0.089-0.294-0.247-0.557-0.469-0.785c-0.224-0.228-0.482-0.436-0.774-0.624
				c-0.226-0.145-0.461-0.277-0.696-0.408c0.202-0.7,0.404-1.399,0.606-2.099c0.226,0.088,0.452,0.19,0.679,0.325
				c0.338,0.201,0.65,0.449,0.936,0.745c0.254-0.306,0.508-0.613,0.762-0.919c-0.276-0.309-0.623-0.585-1.047-0.83
				c-0.322-0.186-0.656-0.34-1.002-0.461c0.111-0.386,0.223-0.772,0.335-1.158c-0.303-0.087-0.606-0.174-0.909-0.261
				c-0.112,0.392-0.224,0.784-0.335,1.176c-0.467-0.089-0.885-0.112-1.253-0.062c-0.517,0.07-0.932,0.24-1.248,0.51
				c-0.316,0.27-0.528,0.604-0.637,1.002c-0.107,0.391-0.114,0.735-0.019,1.032c0.095,0.296,0.256,0.557,0.483,0.782
				c0.227,0.225,0.489,0.432,0.784,0.62c0.22,0.141,0.444,0.271,0.67,0.395c-0.197,0.691-0.395,1.383-0.592,2.074
				c-0.344-0.128-0.669-0.298-0.976-0.509c-0.403-0.279-0.725-0.575-0.965-0.889c-0.26,0.307-0.52,0.616-0.779,0.924
				c0.253,0.347,0.624,0.677,1.113,0.99c0.396,0.253,0.824,0.457,1.284,0.615c-0.11,0.387-0.221,0.774-0.331,1.161
				c0.292,0.083,0.585,0.167,0.876,0.252c0.113-0.391,0.226-0.782,0.339-1.174c0.458,0.089,0.872,0.113,1.237,0.066
				c0.509-0.066,0.921-0.23,1.238-0.495c0.317-0.264,0.533-0.591,0.65-0.98C351.286,133.966,351.299,133.628,351.21,133.333z
				 M348.242,130.923c-0.243-0.151-0.43-0.32-0.555-0.502c-0.126-0.182-0.158-0.385-0.095-0.608c0.051-0.181,0.154-0.331,0.31-0.449
				c0.155-0.118,0.371-0.188,0.646-0.207c0.128-0.01,0.27-0.003,0.423,0.016c-0.178,0.622-0.355,1.244-0.532,1.867
				C348.373,131.002,348.303,130.962,348.242,130.923z M349.448,134.466c-0.158,0.108-0.369,0.169-0.638,0.182
				c-0.129,0.006-0.276-0.004-0.436-0.027c0.177-0.614,0.354-1.227,0.532-1.841c0.072,0.044,0.147,0.088,0.215,0.132
				c0.24,0.156,0.425,0.327,0.551,0.511c0.127,0.184,0.157,0.388,0.092,0.61C349.71,134.213,349.604,134.357,349.448,134.466z"/>
		</g>
		<g>
			<circle style="fill:#E59E47;" cx="388.787" cy="143.929" r="31"/>
			<circle style="fill:#FABC5F;" cx="394.787" cy="143.929" r="31"/>
			<path style="fill:#E59E47;" d="M422.008,129.108c-0.248-0.455-0.509-0.901-0.779-1.342l-24.322,14.043l14.042-24.322
				c-0.441-0.27-0.887-0.531-1.342-0.779l-14.044,24.325v-28.084c-0.259-0.006-0.516-0.02-0.777-0.02
				c-0.26,0-0.517,0.013-0.776,0.02v28.084l-14.044-24.325c-0.454,0.248-0.901,0.509-1.342,0.779l14.043,24.323l-24.323-14.043
				c-0.27,0.44-0.531,0.887-0.779,1.342l24.325,14.044h-28.084c-0.007,0.259-0.02,0.516-0.02,0.776c0,0.26,0.013,0.518,0.02,0.776
				h28.084l-24.325,14.044c0.248,0.455,0.509,0.901,0.779,1.342l24.323-14.043l-14.043,24.323c0.44,0.27,0.887,0.531,1.342,0.779
				l14.044-24.325v28.084c0.259,0.006,0.516,0.02,0.776,0.02c0.26,0,0.518-0.013,0.777-0.02v-28.084l14.044,24.325
				c0.455-0.248,0.901-0.509,1.342-0.779l-14.042-24.322l24.322,14.042c0.27-0.44,0.53-0.887,0.779-1.342l-24.325-14.044h28.084
				c0.006-0.259,0.02-0.516,0.02-0.776c0-0.26-0.013-0.518-0.02-0.776h-28.084L422.008,129.108z"/>
			<path style="fill:#1F160F;" d="M394.787,175.187c-17.236,0-31.259-14.023-31.259-31.259s14.022-31.259,31.259-31.259
				c0.143,0,0.259,0.116,0.259,0.259c0,0.143-0.116,0.259-0.259,0.259c-16.951,0-30.741,13.79-30.741,30.741
				s13.79,30.741,30.741,30.741c0.143,0,0.259,0.116,0.259,0.259S394.929,175.187,394.787,175.187z"/>
			<circle style="fill:#E59E47;" cx="394.787" cy="143.929" r="25"/>
			<path style="fill:#1F160F;" d="M394.787,169.188c-0.143,0-0.259-0.116-0.259-0.259s0.116-0.259,0.259-0.259
				c13.643,0,24.741-11.099,24.741-24.741s-11.099-24.741-24.741-24.741c-13.643,0-24.741,11.099-24.741,24.741
				c0,0.143-0.116,0.259-0.259,0.259c-0.143,0-0.259-0.116-0.259-0.259c0-13.928,11.331-25.259,25.259-25.259
				c13.928,0,25.259,11.331,25.259,25.259S408.714,169.188,394.787,169.188z"/>
			<path style="fill:#F5E5C9;" d="M402.496,145.607c-0.449-0.709-1.045-1.279-1.784-1.71c-0.74-0.43-1.551-0.779-2.431-1.05
				c-0.682-0.209-1.375-0.379-2.069-0.547v-6.031c0.634,0.06,1.279,0.157,1.949,0.338c1,0.27,1.97,0.686,2.91,1.245l1.23-3.03
				c-0.92-0.6-2-1.06-3.24-1.38c-0.944-0.243-1.894-0.393-2.85-0.451v-3.328h-2.46v3.377c-1.233,0.117-2.303,0.371-3.195,0.778
				c-1.25,0.57-2.181,1.331-2.79,2.28c-0.61,0.95-0.915,1.995-0.915,3.135c0,1.12,0.225,2.04,0.675,2.761
				c0.45,0.72,1.045,1.295,1.785,1.725c0.739,0.431,1.555,0.785,2.445,1.064c0.665,0.21,1.33,0.386,1.995,0.544v5.956
				c-0.978-0.08-1.938-0.286-2.881-0.62c-1.24-0.44-2.279-0.99-3.119-1.65l-1.351,3.03c0.9,0.74,2.095,1.345,3.585,1.814
				c1.206,0.38,2.462,0.599,3.766,0.671v3.334h2.46v-3.373c1.249-0.115,2.333-0.372,3.239-0.782c1.261-0.57,2.195-1.33,2.806-2.28
				c0.609-0.95,0.915-1.984,0.915-3.105C403.172,147.223,402.946,146.317,402.496,145.607z M393.167,141.513
				c-0.73-0.22-1.32-0.525-1.771-0.915c-0.45-0.39-0.675-0.904-0.675-1.545c0-0.52,0.154-0.995,0.465-1.425
				c0.31-0.43,0.805-0.775,1.485-1.035c0.317-0.121,0.68-0.211,1.08-0.276v5.359C393.557,141.622,393.351,141.568,393.167,141.513z
				 M398.852,149.987c-0.32,0.41-0.82,0.735-1.5,0.976c-0.329,0.117-0.711,0.203-1.14,0.263v-5.292
				c0.216,0.061,0.441,0.12,0.645,0.184c0.73,0.23,1.325,0.539,1.785,0.93c0.46,0.39,0.69,0.905,0.69,1.545
				C399.332,149.113,399.171,149.578,398.852,149.987z"/>
		</g>
	</g>
	<g>
		<path style="fill:#E59E47;" d="M218.078,71.456v36h-58v-30c0-1.105,0.895-2,2-2h26l3.406-5.109
			c0.371-0.556,0.995-0.891,1.664-0.891h22.93C217.183,69.456,218.078,70.352,218.078,71.456z"/>
		<rect x="181.664" y="96.119" style="fill:#FFFFFF;" width="12" height="5"/>
		<rect x="196.008" y="96.119" style="fill:#FFFFFF;" width="12" height="5"/>
		<polygon style="fill:#1F160F;" points="171.055,75.392 167.055,75.392 167.597,55.392 170.513,55.392 		"/>
		<polygon style="fill:#1F160F;" points="181.962,75.392 177.962,75.392 178.503,55.392 181.42,55.392 		"/>
		<g>
			<polygon style="fill:#FFFFFF;" points="208.786,69.456 202.786,69.456 203.492,43.456 208.081,43.456 			"/>
			<polygon style="fill:#CC4E49;" points="202.911,64.852 208.661,64.852 208.58,61.852 202.993,61.852 			"/>
			<polygon style="fill:#CC4E49;" points="203.195,54.392 208.377,54.392 208.296,51.392 203.277,51.392 			"/>
			<rect x="203.286" y="43.456" style="fill:#1F160F;" width="5" height="1"/>
		</g>
		<rect x="168.724" y="93.456" style="fill:#FFFFFF;" width="7" height="14"/>
		<g>
			<rect x="166.422" y="81.141" style="fill:#FFFFFF;" width="2" height="2"/>
			<rect x="172.609" y="81.141" style="fill:#FFFFFF;" width="2" height="2"/>
			<rect x="178.797" y="81.141" style="fill:#FFFFFF;" width="2" height="2"/>
			<rect x="184.984" y="81.141" style="fill:#FFFFFF;" width="2" height="2"/>
			<rect x="191.172" y="81.141" style="fill:#FFFFFF;" width="2" height="2"/>
			<rect x="197.359" y="81.141" style="fill:#FFFFFF;" width="2" height="2"/>
			<rect x="203.547" y="81.141" style="fill:#FFFFFF;" width="2" height="2"/>
			<rect x="209.734" y="81.141" style="fill:#FFFFFF;" width="2" height="2"/>
		</g>
	</g>
	<g>
		<polygon style="fill:#1F160F;" points="217.511,281.096 47.511,288.488 47.511,281.096 		"/>
		<g>
			<rect x="47.511" y="141.096" style="fill:#FFFFFF;" width="170" height="140"/>
			<g>
				<defs>
					<path id="SVGID_1_" d="M217.511,281.096h-170v-140h170V281.096z"/>
				</defs>
				<clipPath id="SVGID_00000137127162538613029340000000409858556036937900_">
					<use xlink:href="#SVGID_1_"  style="overflow:visible;"/>
				</clipPath>
				<g style="clip-path:url(#SVGID_00000137127162538613029340000000409858556036937900_);">
					<rect x="153.83" y="141.1" style="fill:#F5E5C9;" width="34" height="54"/>
					<rect x="191.83" y="141.1" style="fill:#F5E5C9;" width="34" height="54"/>
					<rect x="153.83" y="199.1" style="fill:#F5E5C9;" width="34" height="54"/>
					<rect x="191.83" y="199.1" style="fill:#F5E5C9;" width="34" height="54"/>
				</g>
				<g style="clip-path:url(#SVGID_00000137127162538613029340000000409858556036937900_);">
					<path style="fill:#F5E5C9;" d="M123.727,225.115c-0.71-8.388-6.764-15.188-13.521-15.188H53.381l8.644,74.943h66.762
						L123.727,225.115z"/>
					<path style="fill:#EBD4AE;" d="M71.962,284.871H47.491l-5.06-59.756c-0.71-8.388,4.192-15.188,10.95-15.188l0,0
						c6.757,0,12.811,6.8,13.522,15.188L71.962,284.871z"/>
				</g>
			</g>
			<path style="fill:#1F160F;" d="M47.511,275.134c-0.143,0-0.259-0.116-0.259-0.259V141.096c0-0.143,0.116-0.259,0.259-0.259h170
				c0.142,0,0.259,0.116,0.259,0.259v78.153c0,0.143-0.116,0.259-0.259,0.259c-0.143,0-0.259-0.116-0.259-0.259v-77.895H47.77
				v133.519C47.77,275.017,47.654,275.134,47.511,275.134z"/>
		</g>
		<g>
			<g>
				<g>
					<polygon style="fill:#EBA38D;" points="133.478,185.722 114.85,186.103 114.85,167.691 133.478,167.691 					"/>
					<path style="fill:#1F160F;" d="M133.478,180.324l0-12.633h-16.541C116.937,167.691,116.35,181.73,133.478,180.324z"/>
				</g>
				<g>
					<path style="fill:#1F160F;" d="M142.352,138.849h1.112c0,0-2.464-7.255-9.183-5.694c-1.769-3.827-7.461-3.335-7.461-3.335
						l1.403,1.528c-17.557-3.451-21.718,12.229-21.718,12.229l2.03-0.643c-1.696,5.478-1.162,12.415,2.553,19.896l28.515,0.564
						c2.246-3.924,2.32-9.056,3.149-12.345C144.107,146.712,143.884,142.24,142.352,138.849z"/>
					<path style="fill:#EBA38D;" d="M141.415,159.073c-0.242,13.845-2.502,18.981-12.177,18.812
						c-9.666-0.169-16.775-5.468-16.534-19.313c0.242-13.835,9.252-18.335,14.678-18.24
						C132.819,140.426,141.657,145.238,141.415,159.073z"/>
					<g>
						<path style="fill:#EBA38D;" d="M106.771,157.633c0.599-4.497,3.739-5.655,6.972-2.19l-0.175,10.051
							C109.466,168.775,106.172,162.13,106.771,157.633z"/>
						<path style="fill:#1F160F;" d="M108.317,158.029c-0.024,0-0.05-0.003-0.075-0.011c-0.137-0.041-0.214-0.185-0.173-0.322
							c0.325-1.08,0.971-1.748,1.82-1.882c0.93-0.148,1.976,0.393,2.659,1.378c0.081,0.118,0.052,0.279-0.065,0.36
							c-0.116,0.08-0.278,0.052-0.36-0.066c-0.569-0.823-1.415-1.277-2.153-1.162c-0.651,0.103-1.137,0.628-1.405,1.52
							C108.531,157.956,108.428,158.029,108.317,158.029z"/>
					</g>
					<path style="fill:#1F160F;" d="M120.844,146.775c9.281,4.162,13.547-2.846,19.312-0.478c2.834,1.164,0.601-8.837-11.553-9.049
						c-15.195-0.265-15.653,15.015-15.563,17.513c0.1,2.792,1.605,7.181,2.135,5.287
						C117.739,150.897,119.953,153.971,120.844,146.775z"/>
					<g>
						<g>
							<path style="fill:#FFFFFF;" d="M122.339,159.3h6.322c0.552,0,1-0.448,1-1v-2.574c0-0.552-0.448-1-1-1h-6.322
								c-0.552,0-1,0.448-1,1v2.574C121.339,158.853,121.787,159.3,122.339,159.3z"/>
							<path style="fill:#FFFFFF;" d="M133.15,159.3h5.564c0.552,0,1-0.448,1-1v-2.574c0-0.552-0.448-1-1-1h-5.564
								c-0.552,0-1,0.448-1,1v2.574C132.15,158.853,132.598,159.3,133.15,159.3z"/>
							<path style="fill:#FFFFFF;" d="M132.512,156.599h-3.625c-0.143,0-0.259-0.116-0.259-0.259c0-0.143,0.116-0.259,0.259-0.259
								h3.625c0.143,0,0.259,0.116,0.259,0.259C132.771,156.483,132.655,156.599,132.512,156.599z"/>
							<path style="fill:#FFFFFF;" d="M121.878,156.599c-0.026,0-0.053-0.004-0.08-0.013l-8.554-2.776l-0.817,0.307
								c-0.133,0.05-0.283-0.018-0.333-0.151c-0.05-0.134,0.018-0.283,0.151-0.333l0.902-0.339c0.055-0.021,0.115-0.021,0.171-0.004
								l8.641,2.804c0.136,0.044,0.21,0.19,0.166,0.326C122.088,156.53,121.987,156.599,121.878,156.599z"/>
							<path style="fill:#FFFFFF;" d="M139.456,156.599c-0.127,0-0.238-0.094-0.256-0.223c-0.02-0.142,0.079-0.272,0.22-0.292
								l2.156-0.303c0.141-0.012,0.273,0.079,0.292,0.22c0.02,0.142-0.079,0.272-0.22,0.292l-2.156,0.303
								C139.48,156.598,139.468,156.599,139.456,156.599z"/>
						</g>
						<path style="fill:#1F160F;" d="M130.271,165.467c-0.252,0-0.494-0.05-0.717-0.151c-0.13-0.059-0.188-0.212-0.129-0.343
							c0.059-0.131,0.213-0.188,0.343-0.129c0.642,0.291,1.327-0.09,1.592-0.268c0.478-0.32,0.725-0.707,0.719-0.864
							c-0.005-0.155-0.158-0.559-0.319-0.987c-0.402-1.064-1.008-2.672-0.979-4.321c0.002-0.144,0.091-0.264,0.263-0.254
							c0.143,0.002,0.257,0.121,0.254,0.263c-0.027,1.551,0.559,3.103,0.946,4.13c0.207,0.549,0.344,0.911,0.353,1.151
							c0.016,0.457-0.465,0.988-0.949,1.312C131.192,165.311,130.717,165.467,130.271,165.467z"/>
						<path style="fill:#1F160F;" d="M136.461,157.271c-0.015,0.857-0.49,1.544-1.062,1.534c-0.571-0.01-1.023-0.713-1.008-1.57
							c0.015-0.857,0.49-1.544,1.062-1.534C136.024,155.711,136.476,156.414,136.461,157.271z"/>
						<path style="fill:#1F160F;" d="M138.055,154.651c-0.121,0-0.243-0.028-0.357-0.087c-1.035-0.537-1.97-0.779-3.693-0.424
							c-0.418,0.083-0.831-0.183-0.917-0.604c-0.086-0.42,0.184-0.831,0.604-0.917c1.869-0.385,3.193-0.226,4.721,0.567
							c0.381,0.198,0.529,0.666,0.332,1.046C138.606,154.498,138.335,154.651,138.055,154.651z"/>
						<path style="fill:#1F160F;" d="M124.687,157.023c-0.015,0.857,0.436,1.56,1.007,1.57c0.572,0.01,1.047-0.677,1.062-1.534
							c0.015-0.857-0.436-1.56-1.008-1.57C125.177,155.479,124.702,156.166,124.687,157.023z"/>
						<path style="fill:#1F160F;" d="M123.097,154.312c-0.262,0-0.518-0.133-0.664-0.374c-0.222-0.367-0.105-0.844,0.261-1.066
							c1.541-0.935,2.97-1.132,5.276-0.728c0.422,0.074,0.704,0.477,0.63,0.899c-0.075,0.422-0.477,0.703-0.899,0.63
							c-2.175-0.384-3.154-0.11-4.202,0.526C123.374,154.276,123.234,154.312,123.097,154.312z"/>
						<path style="fill:#FFFFFF;" d="M131.16,169.068c-2.474,0.075-4.547-0.701-5.764-1.948c0,0-0.378,2.081,1.162,2.845
							C128.589,170.973,131.16,169.068,131.16,169.068z"/>
					</g>
				</g>
			</g>
			<g>
				<g>
					<path style="fill:#1C8C4F;" d="M170.75,234.74c-6.25,1.16-13.391-6.587-20.771-21.117c0,0,1.201,19.666,2.531,67.473H88.601
						l1.328-37.791c0,0-4.879-8.197-4.679-13.447c0.98-24.94,4.44-34.158,8-38.278c6.46-7.47,24.71-8.49,32.46-8.24
						c10.97,0.34,19.23,1.29,23.71,2.57c5.27,1.5,15.77,13.28,23.85,29.43C173.27,215.34,181.42,232.73,170.75,234.74z"/>
					<path style="fill:#EBA38D;" d="M133.478,183.681c0,4.386-1.837,9.636-7.195,9.636c-5.358,0-11.433-4.493-11.433-9.919
						c0,0,5.944-0.394,10.088-0.394C129.081,183.004,133.478,183.681,133.478,183.681z"/>
				</g>
				<g>
					<path style="fill:#1F160F;" d="M149.987,213.883c-0.14,0-0.254-0.111-0.259-0.251c-0.171-5.67-0.99-16.407-0.999-16.515
						c-0.011-0.142,0.096-0.267,0.238-0.277c0.141-0.013,0.267,0.095,0.278,0.238c0.008,0.108,0.829,10.856,1.001,16.539
						c0.004,0.143-0.108,0.262-0.251,0.267C149.992,213.883,149.989,213.883,149.987,213.883z"/>
					<path style="fill:#FFFFFF;" d="M117.737,197.28c7.531-5.138,11.735-3.041,16.838-0.396c0,0,1.839-7.361,1.71-12.966
						l-2.807-2.292c0,3.188-2.972,11.063-6.978,11.063c-9.875,0-11.65-11.063-11.65-11.063l-3.548,2.561
						C111.75,189.75,117.737,197.28,117.737,197.28z"/>
					<path style="fill:#1F160F;" d="M105.094,231.509c-0.014,0-0.027-0.001-0.041-0.003c-0.141-0.023-0.237-0.155-0.215-0.296
						c2.321-14.631,4.04-24.099,4.057-24.193c0.025-0.141,0.16-0.235,0.301-0.208c0.141,0.025,0.234,0.16,0.208,0.301
						c-0.017,0.094-1.735,9.557-4.055,24.181C105.329,231.418,105.219,231.509,105.094,231.509z"/>
					<path style="fill:#1F160F;" d="M126.5,207.915c-0.003,0-0.006,0-0.009,0c-0.143-0.005-0.255-0.125-0.25-0.268
						c0.003-0.072,0.247-7.276,0-13.009c-0.006-0.143,0.104-0.264,0.247-0.27c0.15-0.025,0.263,0.105,0.27,0.247
						c0.248,5.753,0.003,12.977,0.001,13.049C126.754,207.805,126.639,207.915,126.5,207.915z"/>
				</g>
				<g>
					<rect x="127.818" y="221.5" style="fill:#E59E47;" width="44.007" height="62.469"/>
					<rect x="171.825" y="221.5" style="fill:#FABC5F;" width="55" height="62.469"/>
					<rect x="171.566" y="221.5" style="fill:#1F160F;" width="0.518" height="62.469"/>
					<g>
						<rect x="179.078" y="271.922" style="fill:#F5E5C9;" width="20" height="6"/>
						<rect x="179.078" y="263.915" style="fill:#F5E5C9;" width="8" height="6"/>
						<rect x="191.078" y="263.915" style="fill:#F5E5C9;" width="8" height="6"/>
					</g>
					<polygon style="fill:#F5E5C9;" points="154.82,221.5 154.82,235.5 153.16,233.5 151.49,235.5 149.83,233.5 148.16,235.5 
						146.49,233.5 144.82,235.5 144.82,221.5 					"/>
				</g>
				<g>
					<path style="fill:#EBA38D;" d="M126.937,267.1c6.509,1.871,9.8,2.719,14.813,3.349c3.614,0.455,11.426,1.316,11.69-0.402
						c0.216-1.406-7.911-2.203-7.911-2.203s8.538-0.643,10.4-1.078c1.805-0.422,1.664-2.639-0.047-2.391
						c-1.343,0.195-10.353,0.375-10.353,0.375s10.881-1.306,11.845-1.449c1.602-0.238,1.244-2.699-0.297-2.564
						c-4.594,0.404-12.516,0.732-12.516,0.732s10.847-1.579,11.32-1.664c1.477-0.266,1.476-2.491-0.512-2.294
						c-6.331,0.63-15.062,0.729-15.062,0.729s0.091-0.95,0.368-1.368c0.277-0.418,1.413-1.897,3.486-1.637
						c6.353,0.797,5.087-1.922,5.087-1.922s-4.012-1.354-5.742-1.793c-1.577-0.4-5.883,0-7.875,0.809
						c-1.416,0.575-7.083,3.317-7.533,3.046c-14.287-8.624-23.899-18.462-23.899-18.462l-0.023-5.67
						c-9.818,0.79-18.927-1.383-18.927-1.383s-0.453,9.735,0.437,11.892C86.578,243.906,111.812,262.752,126.937,267.1z"/>
					<path style="fill:#1F160F;" d="M149.558,271.329c-1.766,0-4.276-0.175-7.84-0.623c-5.107-0.643-8.447-1.517-14.852-3.357
						c-0.138-0.04-0.217-0.184-0.177-0.32c0.04-0.137,0.18-0.217,0.32-0.178c6.378,1.833,9.703,2.703,14.773,3.341
						c10.353,1.304,11.345,0.188,11.402-0.185c0.002-0.015,0.008-0.055-0.049-0.129c-0.635-0.817-4.912-1.511-7.631-1.777
						c-0.133-0.014-0.235-0.127-0.233-0.261c0.001-0.134,0.105-0.245,0.239-0.255c0.085-0.007,8.539-0.646,10.36-1.072
						c0.827-0.193,1.174-0.817,1.082-1.306c-0.064-0.342-0.36-0.675-1.032-0.577c-1.343,0.195-10.017,0.37-10.385,0.378
						c-0.002,0-0.004,0-0.005,0c-0.136,0-0.249-0.104-0.258-0.241c-0.009-0.137,0.09-0.258,0.228-0.274
						c0.109-0.013,10.888-1.307,11.838-1.448c0.642-0.096,0.871-0.631,0.814-1.118c-0.058-0.488-0.418-0.99-1.049-0.932
						c-4.547,0.399-12.449,0.728-12.528,0.732c-0.129-0.003-0.255-0.098-0.269-0.234c-0.013-0.138,0.085-0.261,0.221-0.28
						c0.108-0.016,10.848-1.579,11.311-1.663c0.62-0.111,0.89-0.628,0.83-1.058c-0.056-0.406-0.42-0.809-1.27-0.724
						c-6.27,0.623-14.997,0.729-15.085,0.73c-0.094-0.014-0.144-0.029-0.193-0.084c-0.05-0.054-0.074-0.126-0.067-0.199
						c0.01-0.104,0.105-1.028,0.409-1.486c0.317-0.482,1.515-2.031,3.734-1.752c3.413,0.427,4.428-0.201,4.729-0.615
						c0.235-0.322,0.175-0.678,0.126-0.844c-0.674-0.227-4.07-1.359-5.605-1.748c-1.463-0.373-5.699-0.021-7.714,0.797
						c-0.381,0.155-1.073,0.469-1.888,0.838c-4.313,1.952-5.521,2.405-5.876,2.19c-0.122-0.074-0.162-0.233-0.088-0.355
						c0.074-0.122,0.233-0.162,0.355-0.088c0.005,0.001,0.01,0.001,0.016,0.001c0.476,0,3.66-1.441,5.379-2.22
						c0.823-0.372,1.522-0.688,1.907-0.845c1.983-0.807,6.337-1.25,8.036-0.82c1.72,0.436,5.721,1.785,5.761,1.799
						c0.067,0.022,0.122,0.071,0.152,0.136c0.015,0.032,0.355,0.782-0.142,1.465c-0.655,0.898-2.408,1.176-5.212,0.823
						c-1.913-0.241-2.962,1.105-3.238,1.523c-0.144,0.217-0.238,0.648-0.288,0.963c1.585-0.024,9.148-0.168,14.741-0.725
						c1.139-0.107,1.741,0.505,1.833,1.168c0.093,0.668-0.313,1.47-1.25,1.639c-0.246,0.045-3.204,0.48-6.038,0.894
						c2.387-0.128,5.117-0.294,7.165-0.474c0.939-0.071,1.52,0.635,1.608,1.387c0.084,0.712-0.271,1.545-1.251,1.69
						c-0.497,0.074-3.552,0.447-6.438,0.797c2.165-0.065,4.282-0.149,4.87-0.234c0.959-0.142,1.503,0.397,1.615,0.992
						c0.137,0.726-0.332,1.64-1.472,1.906c-1.23,0.288-5.244,0.657-7.924,0.883c2.117,0.316,4.864,0.868,5.48,1.661
						c0.16,0.207,0.171,0.399,0.152,0.524C153.605,270.677,152.97,271.329,149.558,271.329z"/>
				</g>
				<g>
					<circle style="fill:#1F160F;" cx="129.307" cy="197.724" r="1"/>
					<circle style="fill:#1F160F;" cx="129.307" cy="203.224" r="1"/>
				</g>
			</g>
		</g>
	</g>
	<g>
		<polygon style="fill:#1F160F;" points="281.03,354.427 451.03,361.819 451.03,354.427 		"/>
		<g>
			<rect x="281.03" y="214.427" style="fill:#FFFFFF;" width="170" height="140"/>
			<g>
				<rect x="281.03" y="239.939" style="fill:#F5E5C9;" width="43.067" height="114.488"/>
				<path style="fill:#EBD4AE;" d="M318.498,320.438c0-1.967-1.595-3.562-3.561-3.562c-1.967,0-3.562,1.595-3.562,3.562
					s1.595,3.562,3.562,3.562C316.903,323.999,318.498,322.405,318.498,320.438z"/>
			</g>
			<g>
				<path style="fill:#EBD4AE;" d="M400.875,296.813c-0.205,7.547,2.75,13.688,2.75,13.688
					c-0.031-19.031,10.422-22.781,10.422-22.781h-7.609L400.875,296.813z"/>
				<path style="fill:#F5E5C9;" d="M407.375,318c0,0,17.687,7.125,17.687,36.427h25.968v-53.161
					c0-59.757-32.343-63.899-32.343-63.899c15.016,10.696,20.625,40.913,20.625,72.398c0,0-11.064-27.662-25.187-26.58
					c-12.078,0.925-13.25,13.628-13.25,13.628C418.75,273.438,434,313.75,434,337C434,337,420,312.75,407.375,318z"/>
			</g>
			<path style="fill:#1F160F;" d="M329.124,354.685H281.03c-0.143,0-0.259-0.116-0.259-0.259v-140c0-0.143,0.116-0.259,0.259-0.259
				h170c0.143,0,0.259,0.116,0.259,0.259v137.081c0,0.143-0.116,0.259-0.259,0.259s-0.259-0.116-0.259-0.259V214.686H281.289
				v139.482h47.836c0.143,0,0.259,0.116,0.259,0.259C329.383,354.569,329.267,354.685,329.124,354.685z"/>
		</g>
		<g>
			<g>
				<path style="fill:#1F160F;" d="M370.696,204.985c8.604-2.531,12.245,5.229,15.141,21.071
					c1.83,10.012,3.684,18.423,12.104,20.857c4.902,1.417,17.185,7.383,11.799,21.377c-4.928,12.806-29.397,15.49-48.882,8.553
					c-29.625-10.548-14.917-42.014-14.917-42.014c-2.246-3.924-1.884-9.198-3.149-12.345
					C338.817,212.597,353.208,192.938,370.696,204.985z"/>
				<g>
					<polygon style="fill:#EBA38D;" points="352.068,257.156 370.696,257.537 370.696,239.125 352.068,239.125 					"/>
					<path style="fill:#1F160F;" d="M352.068,252.797l0-13.672l17.682,0C369.75,239.125,369.196,254.204,352.068,252.797z"/>
				</g>
				<path style="fill:#EBA38D;" d="M344.131,230.507c0.242,13.845,2.502,18.981,12.177,18.812
					c9.666-0.168,16.775-5.468,16.534-19.313c-0.241-13.835-9.252-18.335-14.678-18.24
					C352.727,211.86,343.889,216.672,344.131,230.507z"/>
				<g>
					<path style="fill:#EBA38D;" d="M378.775,229.068c-0.599-4.497-3.739-5.655-6.972-2.19l0.175,10.051
						C376.08,240.209,379.373,233.564,378.775,229.068z"/>
					<path style="fill:#1F160F;" d="M377.229,229.463c-0.111,0-0.214-0.072-0.248-0.184c-0.269-0.892-0.754-1.417-1.405-1.52
						c-0.739-0.119-1.583,0.34-2.152,1.162c-0.083,0.117-0.243,0.146-0.36,0.065c-0.117-0.081-0.147-0.243-0.065-0.36
						c0.684-0.985,1.726-1.526,2.659-1.378c0.849,0.134,1.495,0.803,1.82,1.882c0.041,0.137-0.037,0.281-0.174,0.322
						C377.279,229.459,377.253,229.463,377.229,229.463z"/>
				</g>
				<path style="fill:#1F160F;" d="M364.25,217.25c-8.625,4.563-15.165,7.72-20.124,2.172c-2.041-2.284,0.663-10.528,12.817-10.74
					c15.195-0.265,15.653,15.015,15.563,17.514c-0.1,2.792-1.74,12.5-1.81,10.535C370.266,224.564,365.576,223.787,364.25,217.25z"
					/>
				<g>
					<path style="fill:#FFFFFF;" d="M353.743,240.317c2.474,0.075,4.547-0.701,5.764-1.948c0,0,0.378,2.081-1.162,2.845
						C356.314,242.222,353.743,240.317,353.743,240.317z"/>
					<path style="fill:#1F160F;" d="M355.275,236.901c-0.446,0-0.922-0.156-1.377-0.461c-0.483-0.324-0.964-0.855-0.948-1.311
						c0.009-0.241,0.146-0.604,0.353-1.153c0.388-1.027,0.974-2.579,0.946-4.129c-0.003-0.143,0.111-0.261,0.254-0.263
						c0.002,0,0.004,0,0.005,0c0.141,0,0.256,0.113,0.259,0.254c0.028,1.649-0.578,3.257-0.979,4.321
						c-0.161,0.428-0.314,0.833-0.319,0.988c-0.006,0.156,0.241,0.543,0.719,0.862c0.264,0.178,0.951,0.559,1.593,0.27
						c0.127-0.058,0.283-0.002,0.342,0.129c0.06,0.13,0.002,0.283-0.129,0.342C355.769,236.851,355.527,236.901,355.275,236.901z"/>
					<path style="fill:#1F160F;" d="M349.085,228.705c0.015,0.857,0.49,1.544,1.062,1.534c0.571-0.01,1.023-0.713,1.008-1.57
						c-0.015-0.857-0.491-1.544-1.062-1.534C349.521,227.145,349.07,227.848,349.085,228.705z"/>
					<path style="fill:#1F160F;" d="M347.492,226.085c-0.281,0-0.552-0.152-0.689-0.419c-0.198-0.38-0.05-0.849,0.331-1.046
						c1.528-0.793,2.854-0.952,4.721-0.567c0.42,0.086,0.69,0.497,0.603,0.917c-0.086,0.419-0.497,0.689-0.916,0.604
						c-1.723-0.355-2.658-0.113-3.693,0.424C347.734,226.057,347.612,226.085,347.492,226.085z"/>
					<path style="fill:#1F160F;" d="M360.859,228.457c0.015,0.857-0.436,1.56-1.008,1.57c-0.572,0.01-1.047-0.677-1.062-1.534
						c-0.015-0.857,0.436-1.56,1.008-1.57C360.369,226.913,360.844,227.6,360.859,228.457z"/>
					<path style="fill:#1F160F;" d="M362.448,225.747c-0.137,0-0.276-0.037-0.402-0.113c-1.045-0.635-2.023-0.909-4.201-0.526
						c-0.414,0.073-0.824-0.207-0.898-0.63c-0.074-0.422,0.208-0.825,0.631-0.899c2.307-0.402,3.735-0.207,5.275,0.729
						c0.366,0.223,0.482,0.7,0.26,1.066C362.966,225.614,362.71,225.747,362.448,225.747z"/>
				</g>
			</g>
			<g>
				<g>
					<path style="fill:#EBA38D;" d="M317.28,262.35V279c0,0-16.31-0.157-19.99-2.03c-8.29-4.22-30.67-28.45-31.68-29.02
						c-6.23-3.54-10.8-10.69-11.14-11.13c-0.35-0.44-4.97-4.77-6.43-5.79c-1.46-1.03-0.29-2.33,0.89-1.66
						c1.11,0.63,6.8,4.91,7.36,5.29c0.27,0.18,0.46-0.16,0.32-0.34c-0.13-0.18-7.53-8.35-8.28-9.55c-0.75-1.19,0.71-2.55,1.66-1.76
						c0.5,0.42,8.37,8.85,8.81,9.14c0.28,0.2,0.44-0.09,0.3-0.26c-0.14-0.18-7.04-9.64-8.34-11.71c-1.3-2.06,0.31-3.37,1.73-1.88
						c1.28,1.34,8.39,11.61,8.71,11.85c0.33,0.25,0.53,0,0.37-0.26c-0.17-0.27-6.05-10.16-6.56-11.23
						c-0.56-1.17,0.79-2.17,1.79-1.26c1,0.91,8.82,12.91,11.72,14.41c0,0,0.81-1.46-0.43-4.31c-0.22-0.5-1.92-2.94-2.51-3.66
						c-0.59-0.71-0.97-3.06,0.65-3.71c0,0,4.2,4.11,4.76,4.86c0.56,0.75,1.52,3.7,2.04,5.74c0.41,1.58,0.46,5.31,1.52,7.48
						c0,0,12.012,15.227,31.36,24.14C308.492,263.539,317.28,262.35,317.28,262.35z"/>
					<g>
						<path style="fill:#1F160F;" d="M264.358,241.724c-0.118,0-0.225-0.081-0.252-0.201c-0.038-0.166-0.914-4.095,0.459-7.181
							c0.059-0.131,0.213-0.187,0.342-0.131c0.13,0.058,0.189,0.211,0.131,0.341c-1.302,2.926-0.437,6.817-0.428,6.856
							c0.032,0.14-0.055,0.278-0.194,0.31C264.396,241.723,264.376,241.724,264.358,241.724z"/>
						<path style="fill:#1F160F;" d="M255.897,236.144c-0.06,0-0.119-0.021-0.168-0.063c-0.108-0.093-0.121-0.256-0.028-0.364
							c0.024-0.029,2.561-2.989,6.536-6.648c0.103-0.097,0.269-0.09,0.365,0.015c0.097,0.105,0.09,0.269-0.016,0.366
							c-3.949,3.637-6.468,6.574-6.493,6.604C256.042,236.113,255.97,236.144,255.897,236.144z"/>
						<path style="fill:#1F160F;" d="M266.945,247.698c-0.093,0-0.182-0.05-0.229-0.137c-0.067-0.127-0.02-0.283,0.107-0.351
							c1.988-1.059,4.757-3.792,4.784-3.819c0.102-0.101,0.265-0.1,0.366,0.001c0.101,0.102,0.1,0.266-0.001,0.366
							c-0.116,0.114-2.851,2.814-4.905,3.909C267.028,247.688,266.986,247.698,266.945,247.698z"/>
					</g>
				</g>
				<g>
					<path style="fill:#FABC5F;" d="M393.543,354.427c-0.387-17.905-9.543-32.272-4.847-66.677c0,0,6.325-18.294-1.738-26.156
						c-4.839-4.719-19.375-4.824-27.129-4.824c-7.471,0-14.902,2.338-19.522,2.918c-6.871,0-25.226,1.862-25.226,1.862
						c-0.457,6.2,0.304,21.013,0.304,21.013l22.72,1.325c-6.419,13.769,0.089,15.191,0.686,23.891
						c1.113,16.222,0.316,31.271-0.159,46.649H393.543z"/>
					<path style="fill:#1C8C4F;" d="M338.107,283.887L338.107,283.887c-6.419,13.769,0.089,15.191,0.686,23.891
						c1.113,16.222,0.316,31.271-0.159,46.649h54.909c-0.297-13.767-5.774-25.453-6.157-45.754
						c-12.013-6.523-23.161-28.908-23.109-39.143c0,0-7.184,3.345-13.809-1.717C350.469,267.813,344.937,278.25,338.107,283.887z"/>
					<path style="fill:#EBA38D;" d="M352.068,257.115c-1.433,4.948,0.165,8.319,5.358,9.636c5.386,1.365,13.27-4.529,13.27-9.954
						c0,0-5.944-0.358-10.088-0.359C356.465,256.438,352.068,257.115,352.068,257.115z"/>
				</g>
				<g>
					<path style="fill:#1F160F;" d="M338.107,284.146c-0.04,0-0.08-0.009-0.117-0.028c-0.128-0.065-0.178-0.221-0.113-0.348
						c0.968-1.903,1.795-4.212,2.46-6.861c0.034-0.14,0.176-0.221,0.313-0.189c0.139,0.035,0.224,0.176,0.189,0.314
						c-0.674,2.689-1.516,5.033-2.501,6.971C338.291,284.095,338.201,284.146,338.107,284.146z"/>
					<path style="fill:#1F160F;" d="M364.278,269.789c-0.101,0-0.196-0.06-0.238-0.158c-0.056-0.132,0.006-0.283,0.138-0.339
						c0.072-0.03,7.252-3.153,9.306-11.815c0.033-0.139,0.174-0.227,0.312-0.192c0.139,0.033,0.225,0.173,0.192,0.311
						c-2.116,8.925-9.534,12.141-9.608,12.172C364.345,269.782,364.311,269.789,364.278,269.789z"/>
					<path style="fill:#1F160F;" d="M350.469,268.071c-0.083,0-0.164-0.04-0.214-0.113c-3.698-5.435-1.82-9.488-1.739-9.658
						c0.062-0.128,0.214-0.182,0.345-0.121c0.129,0.061,0.184,0.217,0.122,0.345c-0.018,0.039-1.821,3.968,1.7,9.144
						c0.08,0.118,0.05,0.279-0.068,0.359C350.57,268.056,350.52,268.071,350.469,268.071z"/>
					<path style="fill:#1F160F;" d="M368.412,339.715c-8.299,0-18.823-1.536-24.731-8.343c-0.094-0.108-0.082-0.271,0.025-0.365
						c0.107-0.094,0.273-0.082,0.365,0.025c10.518,12.119,36.131,7.188,36.387,7.135c0.148-0.023,0.277,0.063,0.305,0.203
						c0.027,0.141-0.063,0.276-0.203,0.305C380.442,338.698,375.164,339.715,368.412,339.715z"/>
				</g>
				<g>
					<path style="fill:#EBA38D;" d="M371.04,306.58c0,0-4.51,4.11-8.25,7.12c-0.21,0.16-0.41,0.32-0.61,0.48
						c-0.93,0.21-2.56,0.41-4.69,0.57c-10.09,0.77-31.37,0.74-42.88-3.03c-6.43-2.1-9.63-3.25-14.13-5.54
						c-3.25-1.66-10.2-5.33-9.45-6.9c0.59-1.26,7.4,2.41,7.76,2.61c-0.39-0.32-6.72-5.36-7.98-6.73c-1.25-1.36,0.11-3.11,1.38-1.95
						c0.97,0.89,7.91,5.81,8.34,6.12c-0.49-0.43-8.27-7.2-8.97-7.84c-1.19-1.1,0.49-2.94,1.69-1.96c3.46,2.83,9.54,7.35,9.92,7.63
						c-0.48-0.45-8.08-7.4-8.41-7.73c-1.07-1.05,0.18-2.89,1.71-1.61c4.89,4.08,12.06,9.06,12.06,9.06s0.45-0.83,0.46-1.34
						c0-0.5-0.1-2.36-1.97-3.31c-5.7-2.91-3.13-4.45-3.13-4.45s4.08,1.14,5.76,1.75c1.53,0.55,4.87,3.3,6.06,5.09
						c0.85,1.27,4,6.72,4.53,6.75c16.66,0.89,31.46-0.79,31.46-0.79l3.57-4.88C363.44,303.59,371.04,306.58,371.04,306.58z"/>
					<path style="fill:#FABC5F;" d="M373.476,269.742l-18.21,25.959c2.518,6.048,16.305,12.429,16.305,12.429
						s8.332-8.9,13.049-17.609L373.476,269.742z"/>
					<path style="fill:#1F160F;" d="M371.571,308.389c-0.063,0-0.127-0.023-0.177-0.07c-0.104-0.098-0.109-0.261-0.012-0.365
						c0.083-0.089,8.363-8.977,13.01-17.556c0.068-0.127,0.225-0.174,0.351-0.104c0.126,0.068,0.173,0.226,0.104,0.351
						c-4.679,8.639-13.004,17.574-13.088,17.663C371.708,308.362,371.64,308.389,371.571,308.389z"/>
					<path style="fill:#1F160F;" d="M355.266,295.96c-0.052,0-0.104-0.016-0.148-0.047c-0.117-0.082-0.146-0.243-0.064-0.36
						l18.21-25.959c0.083-0.118,0.244-0.145,0.36-0.064c0.117,0.082,0.146,0.243,0.064,0.36l-18.21,25.959
						C355.427,295.922,355.347,295.96,355.266,295.96z"/>
				</g>
			</g>
		</g>
	</g>
	<g>
		<path style="fill:#D3B78D;" d="M53.046,331.268c0-2.058,1.669-3.727,3.727-3.727c2.058,0,3.727,1.669,3.727,3.727
			c0,2.058-1.669,3.727-3.727,3.727C54.715,334.995,53.046,333.326,53.046,331.268z"/>
		<path style="fill:#D3B78D;" d="M235.16,419.414c0-2.058,1.668-3.727,3.727-3.727c2.058,0,3.727,1.668,3.727,3.727
			c0,2.058-1.669,3.727-3.727,3.727C236.828,423.141,235.16,421.473,235.16,419.414z"/>
		<circle style="fill:#D3B78D;" cx="72.752" cy="322.914" r="2.456"/>
		<path style="fill:#D3B78D;" d="M338.4,87.218c0-2.058,1.668-3.727,3.727-3.727c2.058,0,3.727,1.669,3.727,3.727
			c0,2.058-1.669,3.727-3.727,3.727C340.068,90.944,338.4,89.276,338.4,87.218z"/>
		<path style="fill:#D3B78D;" d="M110.016,91.35c0-2.058,1.669-3.727,3.727-3.727c2.058,0,3.727,1.669,3.727,3.727
			c0,2.058-1.669,3.727-3.727,3.727C111.685,95.077,110.016,93.409,110.016,91.35z"/>
		<path style="fill:#D3B78D;" d="M278.828,93.806c0-1.356,1.1-2.456,2.456-2.456c1.356,0,2.456,1.099,2.456,2.456
			s-1.1,2.456-2.456,2.456C279.928,96.262,278.828,95.163,278.828,93.806z"/>
		<circle style="fill:#D3B78D;" cx="407.578" cy="387.414" r="2.456"/>
		<circle style="fill:#D3B78D;" cx="91.452" cy="76.257" r="2.456"/>
		<circle style="fill:#D3B78D;" cx="209.734" cy="305.632" r="2.456"/>
	</g>
</g>
</svg>
