<svg xmlns="http://www.w3.org/2000/svg" xmlns:xlink="http://www.w3.org/1999/xlink" width="500" zoomAndPan="magnify" viewBox="0 0 375 374.999991" height="500" preserveAspectRatio="xMidYMid meet" version="1.0"><defs><g/><clipPath id="73eefd6eac"><path d="M 64.007812 21.738281 L 310.757812 21.738281 L 310.757812 353.238281 L 64.007812 353.238281 Z M 64.007812 21.738281 " clip-rule="nonzero"/></clipPath></defs><g clip-path="url(#73eefd6eac)"><path fill="#029bda" d="M 85.296875 214.574219 L 85.296875 161.832031 L 130.703125 137.984375 L 130.703125 113.980469 L 69.8125 145.808594 L 64.023438 148.816406 L 64.023438 249.035156 L 79.433594 241.285156 L 172.347656 194.5625 L 178.289062 191.628906 L 178.289062 113.003906 L 289.542969 56.425781 L 289.46875 109.167969 L 222.863281 144 L 217.078125 147.011719 L 217.078125 316.296875 L 178.210938 293.875 L 178.210938 217.960938 L 156.9375 229.171875 L 156.9375 306.140625 L 162.277344 309.226562 L 222.414062 343.984375 L 238.425781 353.238281 L 238.425781 159.875 L 305.027344 125.042969 L 310.742188 122.03125 L 310.742188 21.738281 L 295.332031 29.5625 L 162.800781 96.976562 L 156.9375 99.988281 L 156.9375 178.535156 Z M 85.296875 214.574219 " fill-opacity="1" fill-rule="evenodd"/></g><g fill="#000000" fill-opacity="1"><g transform="translate(367.173672, 374.533266)"><g><path d="M 1.109375 -1.421875 L 1.109375 -1.28125 L 0.671875 -1.28125 L 0.671875 0 L 0.5 0 L 0.5 -1.28125 L 0.046875 -1.28125 L 0.046875 -1.421875 Z M 1.109375 -1.421875 "/></g></g></g><g fill="#000000" fill-opacity="1"><g transform="translate(368.242141, 374.533266)"><g><path d="M 0.1875 0 L 0.1875 -1.078125 L 0.34375 -1.078125 L 0.34375 -0.90625 L 0.359375 -0.90625 C 0.390625 -0.96875 0.429688 -1.015625 0.484375 -1.046875 C 0.546875 -1.078125 0.617188 -1.09375 0.703125 -1.09375 C 0.828125 -1.09375 0.914062 -1.0625 0.96875 -1 C 1.03125 -0.9375 1.0625 -0.832031 1.0625 -0.6875 L 1.0625 0 L 0.90625 0 L 0.90625 -0.6875 C 0.90625 -0.75 0.894531 -0.800781 0.875 -0.84375 C 0.863281 -0.882812 0.835938 -0.910156 0.796875 -0.921875 C 0.765625 -0.941406 0.722656 -0.953125 0.671875 -0.953125 C 0.578125 -0.953125 0.5 -0.921875 0.4375 -0.859375 C 0.375 -0.796875 0.34375 -0.691406 0.34375 -0.546875 L 0.34375 0 Z M 0.1875 0 "/></g></g><g transform="translate(369.482502, 374.533266)"><g><path d="M 0.4375 0.015625 C 0.332031 0.015625 0.25 -0.0078125 0.1875 -0.0625 C 0.132812 -0.113281 0.109375 -0.191406 0.109375 -0.296875 C 0.109375 -0.359375 0.117188 -0.410156 0.140625 -0.453125 C 0.171875 -0.503906 0.210938 -0.539062 0.265625 -0.5625 C 0.328125 -0.59375 0.398438 -0.617188 0.484375 -0.640625 C 0.566406 -0.648438 0.625 -0.660156 0.65625 -0.671875 C 0.695312 -0.691406 0.722656 -0.710938 0.734375 -0.734375 C 0.753906 -0.753906 0.765625 -0.78125 0.765625 -0.8125 C 0.765625 -0.851562 0.75 -0.882812 0.71875 -0.90625 C 0.6875 -0.9375 0.632812 -0.953125 0.5625 -0.953125 C 0.488281 -0.953125 0.425781 -0.9375 0.375 -0.90625 C 0.320312 -0.882812 0.273438 -0.847656 0.234375 -0.796875 L 0.21875 -0.796875 L 0.140625 -0.90625 C 0.179688 -0.96875 0.238281 -1.015625 0.3125 -1.046875 C 0.382812 -1.078125 0.46875 -1.09375 0.5625 -1.09375 C 0.6875 -1.09375 0.773438 -1.066406 0.828125 -1.015625 C 0.890625 -0.960938 0.921875 -0.882812 0.921875 -0.78125 L 0.921875 -0.21875 C 0.921875 -0.15625 0.945312 -0.125 1 -0.125 C 1.019531 -0.125 1.035156 -0.125 1.046875 -0.125 L 1.0625 -0.125 L 1.078125 -0.015625 C 1.066406 -0.00390625 1.050781 0 1.03125 0 C 1.019531 0.0078125 1.003906 0.015625 0.984375 0.015625 C 0.921875 0.015625 0.875 0 0.84375 -0.03125 C 0.8125 -0.0625 0.789062 -0.0976562 0.78125 -0.140625 L 0.765625 -0.15625 C 0.734375 -0.09375 0.691406 -0.046875 0.640625 -0.015625 C 0.585938 0.00390625 0.519531 0.015625 0.4375 0.015625 Z M 0.484375 -0.109375 C 0.535156 -0.109375 0.582031 -0.117188 0.625 -0.140625 C 0.675781 -0.171875 0.710938 -0.210938 0.734375 -0.265625 C 0.753906 -0.316406 0.765625 -0.375 0.765625 -0.4375 L 0.765625 -0.578125 L 0.75 -0.578125 C 0.726562 -0.554688 0.695312 -0.539062 0.65625 -0.53125 C 0.625 -0.519531 0.578125 -0.507812 0.515625 -0.5 C 0.453125 -0.5 0.398438 -0.488281 0.359375 -0.46875 C 0.328125 -0.445312 0.300781 -0.421875 0.28125 -0.390625 C 0.269531 -0.367188 0.265625 -0.335938 0.265625 -0.296875 C 0.265625 -0.234375 0.28125 -0.1875 0.3125 -0.15625 C 0.351562 -0.125 0.410156 -0.109375 0.484375 -0.109375 Z M 0.484375 -0.109375 "/></g></g></g><g fill="#000000" fill-opacity="1"><g transform="translate(370.584178, 374.533266)"><g><path d="M 0.734375 -0.171875 L 0.78125 -0.0625 C 0.75 -0.03125 0.710938 -0.0078125 0.671875 0 C 0.640625 0.0078125 0.597656 0.015625 0.546875 0.015625 C 0.335938 0.015625 0.234375 -0.0859375 0.234375 -0.296875 L 0.234375 -0.953125 L 0.046875 -0.953125 L 0.046875 -1.078125 L 0.234375 -1.078125 L 0.234375 -1.3125 L 0.390625 -1.328125 L 0.390625 -1.078125 L 0.75 -1.078125 L 0.75 -0.953125 L 0.390625 -0.953125 L 0.390625 -0.3125 C 0.390625 -0.1875 0.445312 -0.125 0.5625 -0.125 C 0.613281 -0.125 0.660156 -0.140625 0.703125 -0.171875 Z M 0.734375 -0.171875 "/></g></g><g transform="translate(371.404575, 374.533266)"><g><path d="M 0.4375 0.015625 C 0.332031 0.015625 0.25 -0.0078125 0.1875 -0.0625 C 0.132812 -0.113281 0.109375 -0.191406 0.109375 -0.296875 C 0.109375 -0.359375 0.117188 -0.410156 0.140625 -0.453125 C 0.171875 -0.503906 0.210938 -0.539062 0.265625 -0.5625 C 0.328125 -0.59375 0.398438 -0.617188 0.484375 -0.640625 C 0.566406 -0.648438 0.625 -0.660156 0.65625 -0.671875 C 0.695312 -0.691406 0.722656 -0.710938 0.734375 -0.734375 C 0.753906 -0.753906 0.765625 -0.78125 0.765625 -0.8125 C 0.765625 -0.851562 0.75 -0.882812 0.71875 -0.90625 C 0.6875 -0.9375 0.632812 -0.953125 0.5625 -0.953125 C 0.488281 -0.953125 0.425781 -0.9375 0.375 -0.90625 C 0.320312 -0.882812 0.273438 -0.847656 0.234375 -0.796875 L 0.21875 -0.796875 L 0.140625 -0.90625 C 0.179688 -0.96875 0.238281 -1.015625 0.3125 -1.046875 C 0.382812 -1.078125 0.46875 -1.09375 0.5625 -1.09375 C 0.6875 -1.09375 0.773438 -1.066406 0.828125 -1.015625 C 0.890625 -0.960938 0.921875 -0.882812 0.921875 -0.78125 L 0.921875 -0.21875 C 0.921875 -0.15625 0.945312 -0.125 1 -0.125 C 1.019531 -0.125 1.035156 -0.125 1.046875 -0.125 L 1.0625 -0.125 L 1.078125 -0.015625 C 1.066406 -0.00390625 1.050781 0 1.03125 0 C 1.019531 0.0078125 1.003906 0.015625 0.984375 0.015625 C 0.921875 0.015625 0.875 0 0.84375 -0.03125 C 0.8125 -0.0625 0.789062 -0.0976562 0.78125 -0.140625 L 0.765625 -0.15625 C 0.734375 -0.09375 0.691406 -0.046875 0.640625 -0.015625 C 0.585938 0.00390625 0.519531 0.015625 0.4375 0.015625 Z M 0.484375 -0.109375 C 0.535156 -0.109375 0.582031 -0.117188 0.625 -0.140625 C 0.675781 -0.171875 0.710938 -0.210938 0.734375 -0.265625 C 0.753906 -0.316406 0.765625 -0.375 0.765625 -0.4375 L 0.765625 -0.578125 L 0.75 -0.578125 C 0.726562 -0.554688 0.695312 -0.539062 0.65625 -0.53125 C 0.625 -0.519531 0.578125 -0.507812 0.515625 -0.5 C 0.453125 -0.5 0.398438 -0.488281 0.359375 -0.46875 C 0.328125 -0.445312 0.300781 -0.421875 0.28125 -0.390625 C 0.269531 -0.367188 0.265625 -0.335938 0.265625 -0.296875 C 0.265625 -0.234375 0.28125 -0.1875 0.3125 -0.15625 C 0.351562 -0.125 0.410156 -0.109375 0.484375 -0.109375 Z M 0.484375 -0.109375 "/></g></g><g transform="translate(372.518947, 374.533266)"><g><path d="M 0.1875 0 L 0.1875 -1.078125 L 0.34375 -1.078125 L 0.34375 -0.90625 L 0.359375 -0.90625 C 0.390625 -0.96875 0.429688 -1.015625 0.484375 -1.046875 C 0.546875 -1.078125 0.617188 -1.09375 0.703125 -1.09375 C 0.828125 -1.09375 0.914062 -1.0625 0.96875 -1 C 1.03125 -0.9375 1.0625 -0.832031 1.0625 -0.6875 L 1.0625 0 L 0.90625 0 L 0.90625 -0.6875 C 0.90625 -0.75 0.894531 -0.800781 0.875 -0.84375 C 0.863281 -0.882812 0.835938 -0.910156 0.796875 -0.921875 C 0.765625 -0.941406 0.722656 -0.953125 0.671875 -0.953125 C 0.578125 -0.953125 0.5 -0.921875 0.4375 -0.859375 C 0.375 -0.796875 0.34375 -0.691406 0.34375 -0.546875 L 0.34375 0 Z M 0.1875 0 "/></g></g><g transform="translate(373.759308, 374.533266)"><g><path d="M 0.1875 0 L 0.1875 -1.078125 L 0.34375 -1.078125 L 0.34375 -0.90625 L 0.359375 -0.90625 C 0.390625 -0.96875 0.429688 -1.015625 0.484375 -1.046875 C 0.546875 -1.078125 0.617188 -1.09375 0.703125 -1.09375 C 0.828125 -1.09375 0.914062 -1.0625 0.96875 -1 C 1.03125 -0.9375 1.0625 -0.832031 1.0625 -0.6875 L 1.0625 0 L 0.90625 0 L 0.90625 -0.6875 C 0.90625 -0.75 0.894531 -0.800781 0.875 -0.84375 C 0.863281 -0.882812 0.835938 -0.910156 0.796875 -0.921875 C 0.765625 -0.941406 0.722656 -0.953125 0.671875 -0.953125 C 0.578125 -0.953125 0.5 -0.921875 0.4375 -0.859375 C 0.375 -0.796875 0.34375 -0.691406 0.34375 -0.546875 L 0.34375 0 Z M 0.1875 0 "/></g></g></g></svg>