<svg xmlns="http://www.w3.org/2000/svg" xmlns:xlink="http://www.w3.org/1999/xlink" width="500" zoomAndPan="magnify" viewBox="0 0 375 374.999991" height="500" preserveAspectRatio="xMidYMid meet" version="1.0"><defs><g/><clipPath id="d87a9b1c60"><path d="M 106.46875 37.5 L 268.46875 37.5 L 268.46875 255 L 106.46875 255 Z M 106.46875 37.5 " clip-rule="nonzero"/></clipPath></defs><g fill="#000000" fill-opacity="1"><g transform="translate(64.834014, 313.141796)"><g><path d="M 27.640625 -34.21875 L 27.640625 -27.546875 L 18.578125 -27.546875 L 18.578125 0 L 10.234375 0 L 10.234375 -27.546875 L 1.171875 -27.546875 L 1.171875 -34.21875 Z M 27.640625 -34.21875 "/></g></g></g><g fill="#000000" fill-opacity="1"><g transform="translate(94.62044, 313.141796)"><g><path d="M 33.640625 0 L 25.296875 0 L 11.359375 -21.109375 L 11.359375 0 L 3.015625 0 L 3.015625 -34.21875 L 11.359375 -34.21875 L 25.296875 -13.015625 L 25.296875 -34.21875 L 33.640625 -34.21875 Z M 33.640625 0 "/></g></g></g><g fill="#000000" fill-opacity="1"><g transform="translate(132.255624, 313.141796)"><g><path d="M 24.328125 -6.046875 L 11.546875 -6.046875 L 9.5 0 L 0.78125 0 L 13.15625 -34.21875 L 22.8125 -34.21875 L 35.203125 0 L 26.375 0 Z M 22.1875 -12.484375 L 17.9375 -25.015625 L 13.75 -12.484375 Z M 22.1875 -12.484375 "/></g></g></g><g fill="#000000" fill-opacity="1"><g transform="translate(169.15955, 313.141796)"><g><path d="M 27.640625 -34.21875 L 27.640625 -27.546875 L 18.578125 -27.546875 L 18.578125 0 L 10.234375 0 L 10.234375 -27.546875 L 1.171875 -27.546875 L 1.171875 -34.21875 Z M 27.640625 -34.21875 "/></g></g></g><g fill="#000000" fill-opacity="1"><g transform="translate(198.945978, 313.141796)"><g><path d="M 24.328125 -6.046875 L 11.546875 -6.046875 L 9.5 0 L 0.78125 0 L 13.15625 -34.21875 L 22.8125 -34.21875 L 35.203125 0 L 26.375 0 Z M 22.1875 -12.484375 L 17.9375 -25.015625 L 13.75 -12.484375 Z M 22.1875 -12.484375 "/></g></g></g><g fill="#000000" fill-opacity="1"><g transform="translate(235.84991, 313.141796)"><g><path d="M 33.640625 0 L 25.296875 0 L 11.359375 -21.109375 L 11.359375 0 L 3.015625 0 L 3.015625 -34.21875 L 11.359375 -34.21875 L 25.296875 -13.015625 L 25.296875 -34.21875 L 33.640625 -34.21875 Z M 33.640625 0 "/></g></g></g><g fill="#000000" fill-opacity="1"><g transform="translate(273.485085, 313.141796)"><g><path d="M 33.640625 0 L 25.296875 0 L 11.359375 -21.109375 L 11.359375 0 L 3.015625 0 L 3.015625 -34.21875 L 11.359375 -34.21875 L 25.296875 -13.015625 L 25.296875 -34.21875 L 33.640625 -34.21875 Z M 33.640625 0 "/></g></g></g><g fill="#000000" fill-opacity="1"><g transform="translate(87.829964, 338.332888)"><g><path d="M 6.109375 -5.140625 C 6.460938 -5.085938 6.789062 -4.941406 7.09375 -4.703125 C 7.394531 -4.460938 7.632812 -4.164062 7.8125 -3.8125 C 7.988281 -3.457031 8.078125 -3.078125 8.078125 -2.671875 C 8.078125 -2.171875 7.945312 -1.71875 7.6875 -1.3125 C 7.4375 -0.90625 7.0625 -0.582031 6.5625 -0.34375 C 6.070312 -0.113281 5.492188 0 4.828125 0 L 1.109375 0 L 1.109375 -9.984375 L 4.6875 -9.984375 C 5.363281 -9.984375 5.941406 -9.867188 6.421875 -9.640625 C 6.898438 -9.421875 7.257812 -9.117188 7.5 -8.734375 C 7.738281 -8.359375 7.859375 -7.929688 7.859375 -7.453125 C 7.859375 -6.859375 7.695312 -6.367188 7.375 -5.984375 C 7.050781 -5.597656 6.628906 -5.316406 6.109375 -5.140625 Z M 2.40625 -5.671875 L 4.59375 -5.671875 C 5.207031 -5.671875 5.679688 -5.8125 6.015625 -6.09375 C 6.347656 -6.382812 6.515625 -6.785156 6.515625 -7.296875 C 6.515625 -7.796875 6.347656 -8.1875 6.015625 -8.46875 C 5.679688 -8.757812 5.203125 -8.90625 4.578125 -8.90625 L 2.40625 -8.90625 Z M 4.71875 -1.078125 C 5.363281 -1.078125 5.867188 -1.226562 6.234375 -1.53125 C 6.597656 -1.832031 6.78125 -2.257812 6.78125 -2.8125 C 6.78125 -3.363281 6.585938 -3.796875 6.203125 -4.109375 C 5.816406 -4.429688 5.304688 -4.59375 4.671875 -4.59375 L 2.40625 -4.59375 L 2.40625 -1.078125 Z M 4.71875 -1.078125 "/></g></g></g><g fill="#000000" fill-opacity="1"><g transform="translate(100.262872, 338.332888)"><g><path d="M 2.375 -9.984375 L 2.375 -3.671875 C 2.375 -2.773438 2.59375 -2.113281 3.03125 -1.6875 C 3.46875 -1.257812 4.070312 -1.046875 4.84375 -1.046875 C 5.601562 -1.046875 6.203125 -1.257812 6.640625 -1.6875 C 7.078125 -2.113281 7.296875 -2.773438 7.296875 -3.671875 L 7.296875 -9.984375 L 8.59375 -9.984375 L 8.59375 -3.6875 C 8.59375 -2.851562 8.425781 -2.148438 8.09375 -1.578125 C 7.757812 -1.015625 7.304688 -0.59375 6.734375 -0.3125 C 6.171875 -0.0390625 5.535156 0.09375 4.828125 0.09375 C 4.117188 0.09375 3.476562 -0.0390625 2.90625 -0.3125 C 2.34375 -0.59375 1.894531 -1.015625 1.5625 -1.578125 C 1.238281 -2.148438 1.078125 -2.851562 1.078125 -3.6875 L 1.078125 -9.984375 Z M 2.375 -9.984375 "/></g></g></g><g fill="#000000" fill-opacity="1"><g transform="translate(113.583635, 338.332888)"><g><path d="M 8.09375 -9.984375 L 4.84375 -3.765625 L 4.84375 0 L 3.546875 0 L 3.546875 -3.765625 L 0.265625 -9.984375 L 1.71875 -9.984375 L 4.1875 -4.921875 L 6.640625 -9.984375 Z M 8.09375 -9.984375 "/></g></g></g><g fill="#000000" fill-opacity="1"><g transform="translate(125.601261, 338.332888)"><g><path d="M 1.515625 0.09375 C 1.265625 0.09375 1.050781 0.00390625 0.875 -0.171875 C 0.707031 -0.347656 0.625 -0.554688 0.625 -0.796875 C 0.625 -1.046875 0.707031 -1.253906 0.875 -1.421875 C 1.050781 -1.597656 1.265625 -1.6875 1.515625 -1.6875 C 1.753906 -1.6875 1.957031 -1.597656 2.125 -1.421875 C 2.289062 -1.253906 2.375 -1.046875 2.375 -0.796875 C 2.375 -0.554688 2.289062 -0.347656 2.125 -0.171875 C 1.957031 0.00390625 1.753906 0.09375 1.515625 0.09375 Z M 1.515625 0.09375 "/></g></g></g><g fill="#000000" fill-opacity="1"><g transform="translate(132.263084, 338.332888)"><g/></g></g><g fill="#000000" fill-opacity="1"><g transform="translate(139.741168, 338.332888)"><g><path d="M 4.265625 0.09375 C 3.609375 0.09375 3.019531 -0.0195312 2.5 -0.25 C 1.976562 -0.488281 1.566406 -0.8125 1.265625 -1.21875 C 0.972656 -1.632812 0.820312 -2.117188 0.8125 -2.671875 L 2.203125 -2.671875 C 2.253906 -2.203125 2.445312 -1.804688 2.78125 -1.484375 C 3.125 -1.160156 3.617188 -1 4.265625 -1 C 4.890625 -1 5.378906 -1.15625 5.734375 -1.46875 C 6.097656 -1.78125 6.28125 -2.179688 6.28125 -2.671875 C 6.28125 -3.046875 6.171875 -3.351562 5.953125 -3.59375 C 5.742188 -3.832031 5.484375 -4.015625 5.171875 -4.140625 C 4.859375 -4.265625 4.429688 -4.398438 3.890625 -4.546875 C 3.234375 -4.710938 2.707031 -4.878906 2.3125 -5.046875 C 1.914062 -5.222656 1.578125 -5.492188 1.296875 -5.859375 C 1.015625 -6.234375 0.875 -6.726562 0.875 -7.34375 C 0.875 -7.894531 1.007812 -8.378906 1.28125 -8.796875 C 1.5625 -9.210938 1.953125 -9.535156 2.453125 -9.765625 C 2.953125 -9.992188 3.53125 -10.109375 4.1875 -10.109375 C 5.125 -10.109375 5.890625 -9.875 6.484375 -9.40625 C 7.078125 -8.945312 7.414062 -8.328125 7.5 -7.546875 L 6.0625 -7.546875 C 6.007812 -7.929688 5.804688 -8.269531 5.453125 -8.5625 C 5.097656 -8.851562 4.632812 -9 4.0625 -9 C 3.507812 -9 3.0625 -8.859375 2.71875 -8.578125 C 2.375 -8.296875 2.203125 -7.898438 2.203125 -7.390625 C 2.203125 -7.023438 2.304688 -6.726562 2.515625 -6.5 C 2.722656 -6.269531 2.972656 -6.09375 3.265625 -5.96875 C 3.566406 -5.851562 3.992188 -5.722656 4.546875 -5.578125 C 5.203125 -5.390625 5.726562 -5.207031 6.125 -5.03125 C 6.53125 -4.851562 6.875 -4.582031 7.15625 -4.21875 C 7.445312 -3.851562 7.59375 -3.351562 7.59375 -2.71875 C 7.59375 -2.226562 7.460938 -1.769531 7.203125 -1.34375 C 6.941406 -0.914062 6.554688 -0.566406 6.046875 -0.296875 C 5.546875 -0.0351562 4.953125 0.09375 4.265625 0.09375 Z M 4.265625 0.09375 "/></g></g></g><g fill="#000000" fill-opacity="1"><g transform="translate(151.801752, 338.332888)"><g><path d="M 2.40625 -8.921875 L 2.40625 -5.59375 L 6.046875 -5.59375 L 6.046875 -4.515625 L 2.40625 -4.515625 L 2.40625 -1.078125 L 6.46875 -1.078125 L 6.46875 0 L 1.109375 0 L 1.109375 -10 L 6.46875 -10 L 6.46875 -8.921875 Z M 2.40625 -8.921875 "/></g></g></g><g fill="#000000" fill-opacity="1"><g transform="translate(162.802625, 338.332888)"><g><path d="M 2.40625 -1.0625 L 5.90625 -1.0625 L 5.90625 0 L 1.109375 0 L 1.109375 -9.984375 L 2.40625 -9.984375 Z M 2.40625 -1.0625 "/></g></g></g><g fill="#000000" fill-opacity="1"><g transform="translate(172.643559, 338.332888)"><g><path d="M 2.40625 -1.0625 L 5.90625 -1.0625 L 5.90625 0 L 1.109375 0 L 1.109375 -9.984375 L 2.40625 -9.984375 Z M 2.40625 -1.0625 "/></g></g></g><g fill="#000000" fill-opacity="1"><g transform="translate(182.484493, 338.332888)"><g><path d="M 1.515625 0.09375 C 1.265625 0.09375 1.050781 0.00390625 0.875 -0.171875 C 0.707031 -0.347656 0.625 -0.554688 0.625 -0.796875 C 0.625 -1.046875 0.707031 -1.253906 0.875 -1.421875 C 1.050781 -1.597656 1.265625 -1.6875 1.515625 -1.6875 C 1.753906 -1.6875 1.957031 -1.597656 2.125 -1.421875 C 2.289062 -1.253906 2.375 -1.046875 2.375 -0.796875 C 2.375 -0.554688 2.289062 -0.347656 2.125 -0.171875 C 1.957031 0.00390625 1.753906 0.09375 1.515625 0.09375 Z M 1.515625 0.09375 "/></g></g></g><g fill="#000000" fill-opacity="1"><g transform="translate(189.146322, 338.332888)"><g/></g></g><g fill="#000000" fill-opacity="1"><g transform="translate(196.624406, 338.332888)"><g><path d="M 0.609375 -5 C 0.609375 -5.976562 0.828125 -6.851562 1.265625 -7.625 C 1.710938 -8.40625 2.316406 -9.015625 3.078125 -9.453125 C 3.835938 -9.890625 4.679688 -10.109375 5.609375 -10.109375 C 6.691406 -10.109375 7.640625 -9.847656 8.453125 -9.328125 C 9.265625 -8.804688 9.859375 -8.0625 10.234375 -7.09375 L 8.671875 -7.09375 C 8.390625 -7.695312 7.988281 -8.160156 7.46875 -8.484375 C 6.945312 -8.804688 6.328125 -8.96875 5.609375 -8.96875 C 4.910156 -8.96875 4.28125 -8.804688 3.71875 -8.484375 C 3.164062 -8.160156 2.734375 -7.695312 2.421875 -7.09375 C 2.109375 -6.5 1.953125 -5.800781 1.953125 -5 C 1.953125 -4.207031 2.109375 -3.507812 2.421875 -2.90625 C 2.734375 -2.3125 3.164062 -1.851562 3.71875 -1.53125 C 4.28125 -1.207031 4.910156 -1.046875 5.609375 -1.046875 C 6.328125 -1.046875 6.945312 -1.203125 7.46875 -1.515625 C 7.988281 -1.835938 8.390625 -2.300781 8.671875 -2.90625 L 10.234375 -2.90625 C 9.859375 -1.945312 9.265625 -1.207031 8.453125 -0.6875 C 7.640625 -0.164062 6.691406 0.09375 5.609375 0.09375 C 4.679688 0.09375 3.835938 -0.125 3.078125 -0.5625 C 2.316406 -1 1.710938 -1.601562 1.265625 -2.375 C 0.828125 -3.15625 0.609375 -4.03125 0.609375 -5 Z M 0.609375 -5 "/></g></g></g><g fill="#000000" fill-opacity="1"><g transform="translate(211.33424, 338.332888)"><g><path d="M 5.625 0.09375 C 4.695312 0.09375 3.851562 -0.117188 3.09375 -0.546875 C 2.332031 -0.984375 1.726562 -1.59375 1.28125 -2.375 C 0.832031 -3.15625 0.609375 -4.03125 0.609375 -5 C 0.609375 -5.976562 0.832031 -6.851562 1.28125 -7.625 C 1.726562 -8.40625 2.332031 -9.007812 3.09375 -9.4375 C 3.851562 -9.875 4.695312 -10.09375 5.625 -10.09375 C 6.5625 -10.09375 7.410156 -9.875 8.171875 -9.4375 C 8.941406 -9.007812 9.546875 -8.40625 9.984375 -7.625 C 10.421875 -6.851562 10.640625 -5.976562 10.640625 -5 C 10.640625 -4.019531 10.421875 -3.140625 9.984375 -2.359375 C 9.546875 -1.585938 8.941406 -0.984375 8.171875 -0.546875 C 7.410156 -0.117188 6.5625 0.09375 5.625 0.09375 Z M 5.625 -1.03125 C 6.320312 -1.03125 6.953125 -1.191406 7.515625 -1.515625 C 8.078125 -1.835938 8.515625 -2.300781 8.828125 -2.90625 C 9.148438 -3.507812 9.3125 -4.207031 9.3125 -5 C 9.3125 -5.800781 9.148438 -6.5 8.828125 -7.09375 C 8.515625 -7.695312 8.078125 -8.160156 7.515625 -8.484375 C 6.960938 -8.804688 6.332031 -8.96875 5.625 -8.96875 C 4.925781 -8.96875 4.296875 -8.804688 3.734375 -8.484375 C 3.179688 -8.160156 2.742188 -7.695312 2.421875 -7.09375 C 2.109375 -6.5 1.953125 -5.800781 1.953125 -5 C 1.953125 -4.207031 2.109375 -3.507812 2.421875 -2.90625 C 2.742188 -2.300781 3.179688 -1.835938 3.734375 -1.515625 C 4.296875 -1.191406 4.925781 -1.03125 5.625 -1.03125 Z M 5.625 -1.03125 "/></g></g></g><g fill="#000000" fill-opacity="1"><g transform="translate(226.244563, 338.332888)"><g><path d="M 8.953125 0 L 7.65625 0 L 2.40625 -7.953125 L 2.40625 0 L 1.109375 0 L 1.109375 -10 L 2.40625 -10 L 7.65625 -2.0625 L 7.65625 -10 L 8.953125 -10 Z M 8.953125 0 "/></g></g></g><g fill="#000000" fill-opacity="1"><g transform="translate(239.966302, 338.332888)"><g><path d="M 8.953125 0 L 7.65625 0 L 2.40625 -7.953125 L 2.40625 0 L 1.109375 0 L 1.109375 -10 L 2.40625 -10 L 7.65625 -2.0625 L 7.65625 -10 L 8.953125 -10 Z M 8.953125 0 "/></g></g></g><g fill="#000000" fill-opacity="1"><g transform="translate(253.688042, 338.332888)"><g><path d="M 2.40625 -8.921875 L 2.40625 -5.59375 L 6.046875 -5.59375 L 6.046875 -4.515625 L 2.40625 -4.515625 L 2.40625 -1.078125 L 6.46875 -1.078125 L 6.46875 0 L 1.109375 0 L 1.109375 -10 L 6.46875 -10 L 6.46875 -8.921875 Z M 2.40625 -8.921875 "/></g></g></g><g fill="#000000" fill-opacity="1"><g transform="translate(264.688915, 338.332888)"><g><path d="M 0.609375 -5 C 0.609375 -5.976562 0.828125 -6.851562 1.265625 -7.625 C 1.710938 -8.40625 2.316406 -9.015625 3.078125 -9.453125 C 3.835938 -9.890625 4.679688 -10.109375 5.609375 -10.109375 C 6.691406 -10.109375 7.640625 -9.847656 8.453125 -9.328125 C 9.265625 -8.804688 9.859375 -8.0625 10.234375 -7.09375 L 8.671875 -7.09375 C 8.390625 -7.695312 7.988281 -8.160156 7.46875 -8.484375 C 6.945312 -8.804688 6.328125 -8.96875 5.609375 -8.96875 C 4.910156 -8.96875 4.28125 -8.804688 3.71875 -8.484375 C 3.164062 -8.160156 2.734375 -7.695312 2.421875 -7.09375 C 2.109375 -6.5 1.953125 -5.800781 1.953125 -5 C 1.953125 -4.207031 2.109375 -3.507812 2.421875 -2.90625 C 2.734375 -2.3125 3.164062 -1.851562 3.71875 -1.53125 C 4.28125 -1.207031 4.910156 -1.046875 5.609375 -1.046875 C 6.328125 -1.046875 6.945312 -1.203125 7.46875 -1.515625 C 7.988281 -1.835938 8.390625 -2.300781 8.671875 -2.90625 L 10.234375 -2.90625 C 9.859375 -1.945312 9.265625 -1.207031 8.453125 -0.6875 C 7.640625 -0.164062 6.691406 0.09375 5.609375 0.09375 C 4.679688 0.09375 3.835938 -0.125 3.078125 -0.5625 C 2.316406 -1 1.710938 -1.601562 1.265625 -2.375 C 0.828125 -3.15625 0.609375 -4.03125 0.609375 -5 Z M 0.609375 -5 "/></g></g></g><g fill="#000000" fill-opacity="1"><g transform="translate(279.398749, 338.332888)"><g><path d="M 7.25 -9.984375 L 7.25 -8.921875 L 4.53125 -8.921875 L 4.53125 0 L 3.21875 0 L 3.21875 -8.921875 L 0.484375 -8.921875 L 0.484375 -9.984375 Z M 7.25 -9.984375 "/></g></g></g><g clip-path="url(#d87a9b1c60)"><path fill="#029bda" d="M 120.449219 164.019531 L 120.449219 129.417969 L 150.257812 113.769531 L 150.257812 98.019531 L 110.28125 118.902344 L 106.480469 120.875 L 106.480469 186.628906 L 116.597656 181.546875 L 177.597656 150.890625 L 181.496094 148.964844 L 181.496094 97.378906 L 254.539062 60.257812 L 254.488281 94.863281 L 210.761719 117.71875 L 206.960938 119.691406 L 206.960938 230.761719 L 181.449219 216.050781 L 181.449219 166.242188 L 167.480469 173.597656 L 167.480469 224.097656 L 170.984375 226.121094 L 210.464844 248.929688 L 220.980469 255 L 220.980469 128.132812 L 264.703125 105.277344 L 268.457031 103.304688 L 268.457031 37.5 L 258.339844 42.632812 L 171.332031 86.863281 L 167.480469 88.839844 L 167.480469 140.375 Z M 120.449219 164.019531 " fill-opacity="1" fill-rule="evenodd"/></g></svg>